<svg xmlns="http://www.w3.org/2000/svg" viewBox="0 0 200 200" stroke-linecap="round">
  <defs>
    <g id="branquias-lado">
      <line x1="127.6" y1="50.9" x2="151.9" y2="11.9" stroke="#e3919c" stroke-width="5" />
      <circle cx="151.9" cy="11.9" r="6" fill="#e3919c" />
      <line x1="127.6" y1="50.9" x2="125.3" y2="17.0" stroke="#e3919c" stroke-width="4" />
      <circle cx="125.3" cy="17.0" r="4.5" fill="#e3919c" />

      <line x1="150.9" y1="84.2" x2="195.9" y2="74.6" stroke="#e3919c" stroke-width="5" />
      <circle cx="195.9" cy="74.6" r="6" fill="#e3919c" />
      <line x1="150.9" y1="84.2" x2="173.7" y2="59.1" stroke="#e3919c" stroke-width="4" />
      <circle cx="173.7" cy="59.1" r="4.5" fill="#e3919c" />

      <line x1="145.0" y1="121.0" x2="184.9" y2="144.0" stroke="#e3919c" stroke-width="5" />
      <circle cx="184.9" cy="144.0" r="6" fill="#e3919c" />
      <line x1="145.0" y1="121.0" x2="178.8" y2="117.6" stroke="#e3919c" stroke-width="4" />
      <circle cx="178.8" cy="117.6" r="4.5" fill="#e3919c" />
    </g>
  </defs>

  <use href="#branquias-lado" />
  <use href="#branquias-lado" transform="scale(-1,1) translate(-200,0)" />

  <!-- cabeza -->
  <circle cx="100" cy="95" r="52" fill="none" stroke="#ede6dd" stroke-width="5" />

  <!-- ojos -->
  <circle cx="80" cy="82" r="5" fill="#ede6dd" />
  <circle cx="120" cy="82" r="5" fill="#ede6dd" />

  <!-- sonrisa: arco de circunferencia, no una curva a mano -->
  <path d="M 75 112 A 28 28 0 0 0 125 112" fill="none" stroke="#ede6dd" stroke-width="4" />
</svg>
